<?xml version="1.0" encoding="UTF-8"?>
<svg version="1.1" xmlns="http://www.w3.org/2000/svg" width="498" height="417">
<path d="M0 0 C1.01992316 -0.00384115 2.03984632 -0.00768229 3.09067625 -0.01163983 C4.20428528 -0.01077335 5.3178943 -0.00990687 6.46524906 -0.00901413 C8.24777776 -0.01347081 8.24777776 -0.01347081 10.06631714 -0.01801753 C13.3613107 -0.02518956 16.65625211 -0.0278762 19.95124972 -0.028615 C23.50618962 -0.03046828 27.06111829 -0.03801685 30.61605167 -0.04475021 C38.38657023 -0.05832118 46.15708363 -0.06435592 53.92761207 -0.06876087 C58.77927081 -0.07152457 63.63092756 -0.07576208 68.48258495 -0.08026505 C81.91562716 -0.09245455 95.34866778 -0.1027555 108.78171539 -0.10614014 C110.07080024 -0.10646949 110.07080024 -0.10646949 111.3859272 -0.10680549 C112.24736381 -0.10702377 113.10880042 -0.10724204 113.99634117 -0.10746694 C115.74192298 -0.1079104 117.48750478 -0.10835697 119.23308659 -0.10880661 C120.09895411 -0.10902804 120.96482164 -0.10924947 121.85692758 -0.10947761 C135.89464247 -0.11342769 149.93230552 -0.13088954 163.97000038 -0.15416613 C178.38236787 -0.17787121 192.79470933 -0.19034155 207.20709664 -0.19150805 C215.2991926 -0.19242513 223.39122095 -0.19818577 231.4832983 -0.21632767 C238.37183468 -0.23171705 245.26028255 -0.2368559 252.14883285 -0.22858956 C255.6635151 -0.22467933 259.17801902 -0.22563077 262.69267941 -0.23964691 C266.50236324 -0.25470081 270.31179524 -0.24653065 274.12149906 -0.23606491 C275.78856652 -0.24814952 275.78856652 -0.24814952 277.48931211 -0.26047826 C283.81496451 -0.2197117 288.6137874 0.17337044 293.50139713 4.63142776 C297.34743758 9.57082419 298.37888262 12.8672269 297.85686588 19.13142776 C295.90523573 24.47331829 292.88051193 27.41028616 287.85686588 30.13142776 C284.82551107 31.08895671 282.0768281 31.25874216 278.90648651 31.26450634 C277.90412128 31.26874739 276.90175605 31.27298843 275.86901611 31.277358 C274.76990262 31.27697186 273.67078914 31.27658573 272.53836918 31.2761879 C271.3691722 31.27971474 270.19997522 31.28324159 268.99534804 31.28687531 C265.74932109 31.2957128 262.50332231 31.30012285 259.25728548 31.30271828 C255.75691632 31.30661381 252.25656268 31.31625086 248.75620365 31.32527542 C242.69067482 31.34021191 236.62514721 31.35175724 230.55960751 31.36122322 C221.78656066 31.37509333 213.01354263 31.39628002 204.24051649 31.41965175 C190.00285784 31.4575674 175.76519399 31.49253514 161.52752018 31.52425003 C160.24911985 31.52710077 160.24911985 31.52710077 158.94489325 31.5300091 C146.84306174 31.5568559 134.74122616 31.58072693 122.63938618 31.6033941 C121.78681611 31.6049914 120.93424603 31.6065887 120.05584049 31.60823441 C119.20430686 31.60982787 118.35277323 31.61142134 117.47543555 31.61306309 C103.29022741 31.63980629 89.10505013 31.67419331 74.9198752 31.71488816 C66.16588401 31.73969337 57.41192604 31.75800312 48.65790523 31.76804376 C42.66349775 31.77542054 36.66913489 31.7899251 30.67475694 31.810108 C27.21315982 31.82152682 23.75163477 31.82963177 20.29001713 31.82909966 C16.54271227 31.8301751 12.79564371 31.84335895 9.04837894 31.85968399 C7.94703474 31.85706714 6.84569053 31.85445028 5.71097225 31.85175413 C4.71121476 31.85860292 3.71145728 31.86545172 2.68140411 31.87250805 C1.38316512 31.87511242 1.38316512 31.87511242 0.05869907 31.87776941 C-2.43275207 31.99529554 -2.43275207 31.99529554 -5.14313412 34.13142776 C-6.74188858 37.93090586 -6.28809116 42.26574736 -6.28357601 46.32342911 C-6.28654713 47.15636366 -6.28951826 47.98929821 -6.29257941 48.8474732 C-6.30126122 51.64257432 -6.30277421 54.43763259 -6.30426693 57.23274612 C-6.30889537 59.23505113 -6.31392006 61.23735526 -6.3193121 63.23965836 C-6.33243326 68.68173208 -6.33888019 74.12379347 -6.34332275 79.56588054 C-6.34625317 82.96437989 -6.35035787 86.36287587 -6.35482693 89.76137352 C-6.36849943 100.39043345 -6.37816801 111.01948567 -6.38202882 121.64855379 C-6.38651289 133.92645225 -6.40407807 146.20423958 -6.43302941 158.48210424 C-6.45462358 167.96838642 -6.46473184 177.45463727 -6.46606994 186.94094378 C-6.46711934 192.60902939 -6.47305623 198.27701049 -6.49088955 203.94507027 C-6.50733164 209.27449206 -6.50954454 214.60373034 -6.50075054 219.93316841 C-6.49997817 221.89033371 -6.50434916 223.84750873 -6.51420879 225.80464935 C-6.52686975 228.47413411 -6.52108355 231.14296304 -6.51062679 233.81244278 C-6.5186832 234.58890355 -6.5267396 235.36536431 -6.53504014 236.16535419 C-6.49327409 240.71663735 -5.97247044 243.54226312 -3.14313412 247.13142776 C-0.64051269 247.88143504 -0.64051269 247.88143504 2.27042007 247.76228428 C3.40152999 247.77572292 4.53263991 247.78916155 5.69802588 247.80300742 C6.94606366 247.79233416 8.19410143 247.78166091 9.47995853 247.77066422 C10.81486999 247.77697236 12.14977261 247.78547305 13.48465759 247.79598445 C17.16078967 247.81855522 20.8362964 247.80990153 24.51244843 247.79629886 C28.47363384 247.78705942 32.43468781 247.80656352 36.39583683 247.82262039 C43.26138562 247.84649598 50.12675485 247.85206024 56.99233913 247.84527397 C66.91884446 247.83548848 76.84515018 247.85318454 86.77162323 247.87764128 C102.87564404 247.91656949 118.97960791 247.9331961 135.08367252 247.93587112 C150.72953558 247.93851763 166.37533208 247.95162184 182.02117252 247.97883987 C182.98518392 247.98051325 183.94919533 247.98218663 184.94241919 247.98391072 C189.77846262 247.99237004 194.61450565 248.00103548 199.45054853 248.00980341 C239.58597693 248.08230373 279.72137664 248.11864171 319.85686588 248.13142776 C320.18686588 247.14142776 320.51686588 246.15142776 320.85686588 245.13142776 C321.51686588 245.13142776 322.17686588 245.13142776 322.85686588 245.13142776 C322.85906572 243.81006097 322.85906572 243.81006097 322.86131001 242.46199989 C322.89835864 221.02932271 322.95734758 199.59680391 323.04076862 178.16425514 C323.08058112 167.79963165 323.11296239 157.43508433 323.12786198 147.07039261 C323.14086702 138.03671683 323.16780236 129.0032085 323.21147895 119.96962702 C323.23411955 115.18620417 323.24977501 110.40298803 323.24874973 105.61950684 C323.24800466 101.11652001 323.26589403 96.61399062 323.29803371 92.11112213 C323.30654774 90.4591798 323.30827244 88.80718625 323.30266857 87.15523148 C323.29602943 84.89720021 323.3139447 82.64062472 323.33788395 80.38274002 C323.34157112 79.11988363 323.34525829 77.85702724 323.3490572 76.55590248 C323.95325626 72.4814066 325.3010697 70.32551093 327.85686588 67.13142776 C332.16788184 64.05213066 336.21339649 63.54591372 341.38811588 63.71736526 C345.36603153 64.38454732 348.20802747 66.11020623 350.85686588 69.13142776 C353.56097963 73.70901447 354.23430765 77.05480371 354.24454594 82.3466835 C354.25262424 83.40241333 354.25262424 83.40241333 354.26086575 84.47947103 C354.27511597 86.8261208 354.26804903 89.17220412 354.26091862 91.51887894 C354.26662394 93.20633267 354.27358883 94.89378254 354.28171635 96.58122635 C354.29965038 101.15796566 354.29847825 105.73451326 354.29277396 110.31127715 C354.28968076 114.13796086 354.29577642 117.96460781 354.30181271 121.79128629 C354.31585874 130.82535223 354.31429755 139.85932362 354.3029108 148.89339066 C354.29144473 158.19558365 354.30547963 167.49748783 354.33230728 176.79964274 C354.35450918 184.79904077 354.36109111 192.79834845 354.35523087 200.79777509 C354.35186897 205.56955172 354.35422448 210.34114349 354.3714819 215.11289406 C354.38701932 219.60526113 354.38292057 224.09720314 354.36417675 228.58955383 C354.3605088 230.23135869 354.36354656 231.8731955 354.37406254 233.51497078 C354.45822193 247.74963751 352.18128046 258.68240818 341.85686588 269.13142776 C331.79036496 277.86559769 321.82631563 279.59121695 308.78801823 279.47200394 C307.51859379 279.47244202 306.24916935 279.4728801 304.9412775 279.47333145 C301.49143578 279.47418537 298.04191274 279.45665876 294.59214449 279.43560958 C290.97537452 279.41674097 287.35859569 279.41508437 283.7417841 279.41153336 C276.90676567 279.40224259 270.07189274 279.37766946 263.23693812 279.34748489 C255.44969239 279.31384792 247.66243939 279.2974316 239.875139 279.28239858 C223.86894958 279.25111687 207.86296036 279.19614243 191.85686588 279.13142776 C191.85686588 289.03142776 191.85686588 298.93142776 191.85686588 309.13142776 C194.24163151 309.08502151 196.62639713 309.03861526 199.08342838 308.99080276 C201.40681171 308.95956008 203.73017115 308.93529933 206.05364323 308.9117012 C207.66182363 308.8916515 209.26993172 308.86440413 210.87786198 308.82966995 C213.19656608 308.78085513 215.51430214 308.75839348 217.83342838 308.74080276 C218.54616917 308.72015762 219.25890995 308.69951248 219.99324894 308.67824173 C225.10478714 308.67597152 227.88505299 309.99175466 231.85686588 313.13142776 C232.72311588 313.81205276 232.72311588 313.81205276 233.60686588 314.50642776 C236.37629036 318.10667958 237.07925473 321.76043616 236.66936588 326.19392776 C235.81186464 331.30970224 234.11008907 334.1506444 229.98186588 337.38142776 C225.49182584 339.89585019 221.56884709 340.25590172 216.48128605 340.26514053 C215.41593128 340.26940552 214.35057652 340.2736705 213.25293827 340.27806473 C212.09436817 340.27761154 210.93579807 340.27715836 209.74211979 340.27669144 C208.51393024 340.28005005 207.2857407 340.28340866 206.02033329 340.28686905 C202.65867739 340.29473322 199.29708326 340.29804614 195.93542242 340.29868484 C193.83292375 340.29939669 191.73043152 340.30153356 189.62793446 340.30418205 C182.28659754 340.31342741 174.94527875 340.31751794 167.6039362 340.3167305 C160.7710183 340.31612987 153.93817939 340.32668079 147.10528147 340.34247416 C141.22995688 340.35556817 135.35465804 340.36091362 129.47931898 340.36027509 C125.9741951 340.36002066 122.46914146 340.36284164 118.96403217 340.37345314 C115.05279066 340.38497148 111.14165674 340.3803759 107.23040104 340.37434769 C105.49861858 340.38277695 105.49861858 340.38277695 103.73185062 340.3913765 C90.75048616 340.34053572 90.75048616 340.34053572 85.67717838 336.46736526 C82.30759761 332.56983175 79.86134979 329.42031899 79.65374088 324.14705276 C80.16767706 319.04722459 81.66297484 315.32531881 85.29436588 311.69392776 C89.89810634 308.88676895 94.17929977 308.99485563 99.46624088 309.03377151 C100.19305058 309.03518646 100.91986027 309.03660141 101.6686945 309.03805923 C103.98146082 309.04363984 106.294129 309.05618872 108.60686588 309.06892776 C110.17847906 309.07394527 111.75009377 309.07850774 113.32170963 309.08259964 C117.16682961 309.09275043 121.01173836 309.11232945 124.85686588 309.13142776 C124.85686588 299.23142776 124.85686588 289.33142776 124.85686588 279.13142776 C120.97638493 279.15237503 117.09590397 279.1733223 113.09783268 279.19490433 C100.25763416 279.26126851 87.41743814 279.30560498 74.57711411 279.33867645 C66.7942175 279.35925703 59.01148396 279.38729079 51.22869205 279.43318558 C44.44116803 279.47319206 37.65376216 279.49889328 30.8661235 279.50778174 C27.27572224 279.5129733 23.68565889 279.52507966 20.09536648 279.55434799 C16.07650813 279.58684094 12.05822839 279.58737839 8.03923893 279.58552933 C6.86319096 279.59991043 5.68714298 279.61429153 4.47545719 279.62910843 C-6.66698416 279.57385992 -16.56728787 276.42657108 -25.14313412 269.13142776 C-33.66021643 260.19270771 -37.29303978 250.70639108 -37.29030514 238.52423477 C-37.29398183 237.64653099 -37.29765851 236.7688272 -37.30144662 235.86452633 C-37.31247709 232.9175989 -37.31632625 229.97070673 -37.32013607 227.02376175 C-37.32640128 224.91296654 -37.33304813 222.80217244 -37.34004879 220.69137955 C-37.36108743 213.75343468 -37.37145203 206.8154896 -37.38141537 199.87752151 C-37.38546321 197.48799058 -37.38958014 195.09845976 -37.39376545 192.70892906 C-37.41281787 181.48078258 -37.42704795 170.25264268 -37.43537742 159.02448314 C-37.44514588 146.07082995 -37.47145512 133.11734781 -37.51187831 120.16375488 C-37.54206067 110.14744785 -37.55684838 100.1311898 -37.56015843 90.11483818 C-37.56250678 84.13465382 -37.57143929 78.15465219 -37.59661961 72.17451668 C-37.61994177 66.54463907 -37.62411673 60.91506397 -37.61385822 55.28515053 C-37.61336374 53.22407143 -37.61965822 51.16297723 -37.63341427 49.10194397 C-37.71273066 36.50876703 -37.40608411 25.94604867 -30.14313412 15.13142776 C-29.48313412 15.13142776 -28.82313412 15.13142776 -28.14313412 15.13142776 C-27.77188412 14.20330276 -27.77188412 14.20330276 -27.39313412 13.25642776 C-25.93684772 10.7807409 -24.76500906 10.18017774 -22.14313412 9.13142776 C-22.14313412 8.47142776 -22.14313412 7.81142776 -22.14313412 7.13142776 C-20.25120937 6.14473017 -18.35441434 5.16736757 -16.45563412 4.19392776 C-15.39989193 3.64865433 -14.34414974 3.10338089 -13.25641537 2.54158401 C-8.81015103 0.527655 -4.85094582 0.00688033 0 0 Z M154.85686588 279.13142776 C154.85686588 289.03142776 154.85686588 298.93142776 154.85686588 309.13142776 C157.16686588 309.13142776 159.47686588 309.13142776 161.85686588 309.13142776 C161.85686588 299.23142776 161.85686588 289.33142776 161.85686588 279.13142776 C159.54686588 279.13142776 157.23686588 279.13142776 154.85686588 279.13142776 Z " fill="#006AAE" transform="translate(79.14313411712646,38.86857223510742)"/>
<path d="M0 0 C1.05782765 -0.00538554 2.1156553 -0.01077108 3.20553833 -0.01631981 C6.74994196 -0.03062664 10.29397357 -0.02348874 13.83839417 -0.01637268 C16.3796163 -0.02207479 18.92083587 -0.02903843 21.46205139 -0.03717041 C27.64793016 -0.05326832 33.83367155 -0.05519894 40.01956492 -0.04995751 C45.04797667 -0.0459142 50.07635843 -0.04736127 55.10476875 -0.05270576 C55.82075331 -0.05345419 56.53673788 -0.05420261 57.27441894 -0.05497371 C58.72899262 -0.0565052 60.1835663 -0.05804355 61.63813997 -0.05958868 C75.2751536 -0.07331285 88.91210984 -0.06787659 102.54912216 -0.05640347 C115.02123163 -0.04647079 127.49319275 -0.05941245 139.96527933 -0.08333766 C152.77646912 -0.10772793 165.5875898 -0.11733674 178.39880234 -0.11068493 C185.58940289 -0.10719259 192.77988935 -0.10942572 199.97047234 -0.12693596 C206.73141121 -0.14319594 213.49202136 -0.13847749 220.25296783 -0.11963081 C222.73498288 -0.11593797 225.21701884 -0.11907351 227.69901466 -0.1295166 C231.08596752 -0.14267988 234.47197476 -0.13121912 237.85888672 -0.11352539 C238.84215972 -0.1231304 239.82543272 -0.1327354 240.83850187 -0.14263147 C246.92349059 -0.07718052 250.51761442 0.81844373 255.49293518 4.38768005 C258.69045039 8.09006609 260.27368901 11.47130204 260.65309143 16.30174255 C260.35295712 20.21080897 258.80950234 23.26895829 256.49293518 26.38768005 C251.77653969 30.21975139 247.99118356 31.5080754 242.02504349 31.52190113 C241.13026362 31.52635897 240.23548375 31.53081682 239.31358933 31.53540975 C238.33461489 31.53522539 237.35564045 31.53504102 236.34700012 31.53485107 C235.30383754 31.53852776 234.26067497 31.54220445 233.1859014 31.54599255 C229.67919157 31.55703393 226.17251136 31.560874 222.66578674 31.56468201 C220.1560405 31.57094624 217.64629519 31.577593 215.1365509 31.58459473 C207.59788746 31.60382274 200.05922922 31.61442233 192.52054751 31.62332252 C188.96914433 31.62770785 185.41774264 31.63307397 181.86634064 31.63831139 C170.05894404 31.6553207 158.25154836 31.66981502 146.44414139 31.67706013 C143.38130441 31.67896997 140.31846744 31.68089031 137.25563049 31.68284607 C136.11377516 31.68357168 136.11377516 31.68357168 134.94885203 31.68431195 C122.61633194 31.69261293 110.28390881 31.71795229 97.95143107 31.75042675 C85.28608487 31.78350554 72.62078794 31.80150957 59.95539832 31.80470437 C52.84576129 31.80686855 45.73626574 31.81560381 38.62667084 31.84116554 C31.93882839 31.8651557 25.2512845 31.86869313 18.56339264 31.85840416 C16.10920363 31.85790788 13.65500223 31.86425522 11.20085144 31.87796021 C7.84919636 31.89562963 4.49846028 31.88859642 1.14680481 31.87542725 C0.17675326 31.88639649 -0.7932983 31.89736574 -1.79274535 31.90866739 C-7.82048634 31.85152777 -12.50597948 30.89795522 -17.50706482 27.38768005 C-21.08598968 23.25815136 -22.31590153 19.8358339 -22.50706482 14.38768005 C-22.02442253 11.94101813 -21.3282107 9.75451231 -20.50706482 7.38768005 C-19.84706482 7.38768005 -19.18706482 7.38768005 -18.50706482 7.38768005 C-18.30081482 6.78955505 -18.09456482 6.19143005 -17.88206482 5.57518005 C-13.9284329 -0.71468891 -6.57097477 -0.04007276 0 0 Z " fill="#009448" transform="translate(118.50706481933594,228.61231994628906)"/>
<path d="M0 0 C3.8820717 3.18797988 6.47336353 5.96976858 7.4453125 11.02734375 C7.61574572 14.47999097 7.75739416 17.52739791 5.87791443 20.52830505 C5.35286819 21.09058304 4.82782196 21.65286102 4.28686523 22.23217773 C3.32815018 23.26445999 3.32815018 23.26445999 2.35006714 24.31759644 C1.57583405 25.1138443 0.80160095 25.91009216 0.00390625 26.73046875 C-0.66850664 27.42264433 -0.66850664 27.42264433 -1.35450363 28.12880325 C-5.23010263 32.10520745 -9.15598445 36.03055895 -13.0859375 39.953125 C-14.35728782 41.22515042 -15.62848979 42.49732414 -16.89955139 43.76963806 C-19.5530771 46.42463103 -22.20838469 49.07782518 -24.86499023 51.72973633 C-28.2517591 55.11080853 -31.63401768 58.49635133 -35.01494503 61.88326359 C-37.63582393 64.50777443 -40.25910267 67.12987619 -42.88308907 69.75127983 C-44.13041919 70.99794796 -45.37702106 72.24534523 -46.6228466 73.49351692 C-57.53933807 84.42605688 -57.53933807 84.42605688 -61.9621582 88.19213867 C-67.55598479 92.96769978 -72.65149951 98.27638512 -77.83142853 103.49063873 C-79.79663603 105.46874013 -81.76506471 107.44358628 -83.73431396 109.41766357 C-87.90774154 113.60244645 -92.07719885 117.79117104 -96.24609375 121.98046875 C-101.09395613 126.85196975 -105.94345244 131.721821 -110.79717255 136.58748627 C-112.73356323 138.53034419 -114.66691195 140.47619457 -116.60015869 142.42218018 C-117.78700197 143.6126558 -118.97398577 144.80299135 -120.16113281 145.99316406 C-120.69522766 146.53242523 -121.22932251 147.0716864 -121.77960205 147.62728882 C-127.00283033 152.85125532 -127.00283033 152.85125532 -129.99609375 154.73046875 C-135.0746549 153.7677502 -139.12161291 149.70079122 -143.05859375 146.54296875 C-144.67323126 145.26664888 -146.28916367 143.9919658 -147.90625 142.71875 C-148.7430127 142.05955566 -149.57977539 141.40036133 -150.44189453 140.72119141 C-154.58041254 137.49566322 -158.78772391 134.36396824 -162.99609375 131.23046875 C-171.71877843 124.72195184 -180.34152165 118.09310969 -188.89648438 111.36572266 C-190.40105229 110.19390918 -191.91673273 109.03630991 -193.43945312 107.88818359 C-194.64891602 106.97093506 -194.64891602 106.97093506 -195.8828125 106.03515625 C-196.61846436 105.48327637 -197.35411621 104.93139648 -198.11206055 104.36279297 C-201.0732581 101.79721479 -202.08434848 99.50769914 -202.99609375 95.73046875 C-203.10268638 90.5784916 -202.5643691 85.63326992 -198.99609375 81.73046875 C-193.87555493 78.40530558 -189.49174433 77.17467602 -183.43212891 78.01660156 C-178.62695439 79.42473248 -175.06365491 82.66221863 -171.24609375 85.79296875 C-169.40799952 87.24796126 -167.56944356 88.70237062 -165.73046875 90.15625 C-164.79138672 90.9085791 -163.85230469 91.6609082 -162.88476562 92.43603516 C-158.14929421 96.19735703 -153.31915306 99.83263784 -148.49609375 103.48046875 C-138.55151243 111.03385851 -138.55151243 111.03385851 -133.99609375 114.73046875 C-127.48203297 108.77248633 -121.00808545 102.81483688 -114.81640625 96.51953125 C-112.95866106 94.69367868 -111.03441345 92.9898492 -109.05859375 91.29296875 C-103.31488247 86.33761 -97.95161102 81.03230897 -93.02734375 75.26171875 C-88.21099865 69.72327712 -82.99590917 64.58084749 -77.79907227 59.40307617 C-76.06215775 57.67152175 -74.33065486 55.93468516 -72.59960938 54.19726562 C-67.41326292 49.00813106 -62.21633315 43.91052178 -56.63061523 39.14672852 C-54.29716019 37.12486553 -52.14910384 34.9416683 -49.99609375 32.73046875 C-47.05947757 29.7579855 -44.10645295 26.88666123 -40.93359375 24.16796875 C-34.93265739 19.01393873 -29.39238571 13.4238366 -24.24609375 7.41796875 C-18.02328029 0.22239365 -9.36265921 -5.95472455 0 0 Z " fill="#00954A" transform="translate(424.99609375,49.26953125)"/>
<path d="M0 0 C0.78738052 -0.01139008 1.57476105 -0.02278015 2.38600159 -0.03451538 C10.61686939 -0.14510094 18.84862417 -0.19258261 27.08007812 -0.23535156 C30.98254407 -0.25762025 34.88405272 -0.29938128 38.78613281 -0.35839844 C43.50352082 -0.42960061 48.22000852 -0.46619985 52.93790627 -0.47846985 C54.73165661 -0.4888506 56.52538082 -0.51122783 58.31882286 -0.54606628 C74.10527334 -0.83685076 74.10527334 -0.83685076 79.32470703 3.5859375 C83.2536467 7.88703862 84.2590332 11.3422596 84.2590332 17.16210938 C83.50047605 21.92365489 80.84145152 25.12040615 77.2590332 28.22460938 C73.54335503 30.68819467 69.76943605 30.52045538 65.46459961 30.51513672 C64.29312126 30.52521255 64.29312126 30.52521255 63.09797668 30.53549194 C60.51878479 30.55447392 57.93985309 30.55839623 55.3605957 30.56054688 C53.56464532 30.5669747 51.76869599 30.57370305 49.9727478 30.58071899 C46.20845106 30.59269227 42.44424609 30.59639977 38.67993164 30.59521484 C33.86232403 30.59501166 29.04530635 30.62231291 24.22783852 30.65675926 C20.51829336 30.6790244 16.80889026 30.6830525 13.09928513 30.68199539 C11.32351015 30.68435196 9.5477313 30.6931787 7.77202225 30.70866013 C5.28501628 30.72831258 2.79928345 30.72248567 0.31225586 30.71044922 C-0.41729813 30.72168823 -1.14685211 30.73292725 -1.89851379 30.74450684 C-6.97745155 30.68221702 -9.82491895 29.405564 -13.7409668 26.22460938 C-17.20259161 22.01452514 -18.64666823 18.69392636 -18.7409668 13.22460938 C-17.81081543 8.83725824 -16.46950013 5.93492937 -13.2409668 2.78710938 C-8.87509741 0.05844101 -4.98951319 0.04968019 0 0 Z " fill="#009048" transform="translate(114.740966796875,155.775390625)"/>
<path d="M0 0 C1.29744141 -0.01611328 2.59488281 -0.03222656 3.93164062 -0.04882812 C15.92319919 -0.0549682 15.92319919 -0.0549682 21.5625 3.3125 C23.875 5.75 23.875 5.75 25.5625 8.3125 C25.975 8.93125 26.3875 9.55 26.8125 10.1875 C28.33222516 14.49338796 27.96473653 18.19517631 26.4375 22.4375 C23.64234174 26.72340933 20.51474283 29.66175239 15.5625 31.3125 C11.22176899 31.58615553 6.87914423 31.625871 2.53100586 31.66259766 C1.10245403 31.67909775 -0.32601727 31.70630954 -1.75415039 31.74462891 C-16.05491683 32.12571757 -16.05491683 32.12571757 -22.05419922 27.625 C-26.13891451 23.74935061 -27.15071406 19.85702823 -27.4375 14.3125 C-26.96012129 11.8635472 -26.25907242 9.68056168 -25.4375 7.3125 C-24.7775 7.3125 -24.1175 7.3125 -23.4375 7.3125 C-23.1075 6.3225 -22.7775 5.3325 -22.4375 4.3125 C-21.7775 4.3125 -21.1175 4.3125 -20.4375 4.3125 C-20.4375 3.6525 -20.4375 2.9925 -20.4375 2.3125 C-13.62138391 -0.27745656 -7.20901216 -0.01785293 0 0 Z " fill="#009148" transform="translate(123.4375,87.6875)"/>
<path d="M0 0 C0.99 0.33 1.98 0.66 3 1 C0.36 3.64 -2.28 6.28 -5 9 C-5.66 8.67 -6.32 8.34 -7 8 C-6.67 7.34 -6.34 6.68 -6 6 C-5.34 6 -4.68 6 -4 6 C-3.71125 5.38125 -3.4225 4.7625 -3.125 4.125 C-2 2 -2 2 0 0 Z " fill="#004C8E" transform="translate(55,48)"/>
<path d="M0 0 C0 3 0 3 -2.375 5.5 C-3.24125 6.325 -4.1075 7.15 -5 8 C-5.66 8.99 -6.32 9.98 -7 11 C-6.67 9.02 -6.34 7.04 -6 5 C-5.34 5 -4.68 5 -4 5 C-3.71125 4.360625 -3.4225 3.72125 -3.125 3.0625 C-2 1 -2 1 0 0 Z " fill="#005229" transform="translate(104,231)"/>
<path d="M0 0 C0.99 0.33 1.98 0.66 3 1 C2.21625 1.7425 1.4325 2.485 0.625 3.25 C-1.56504531 5.54433318 -2.82731386 7.12158858 -4 10 C-3.67 7.69 -3.34 5.38 -3 3 C-2.34 3 -1.68 3 -1 3 C-0.67 2.01 -0.34 1.02 0 0 Z " fill="#005028" transform="translate(101,92)"/>
<path d="M0 0 C0 3 0 3 -2 5.1875 C-2.66 5.785625 -3.32 6.38375 -4 7 C-4.66 6.67 -5.32 6.34 -6 6 C-4.95125002 3.37812506 -4.35068687 2.20628639 -1.875 0.75 C-1.25625 0.5025 -0.6375 0.255 0 0 Z " fill="#006D33" transform="translate(230,129)"/>
</svg>
